<?xml version="1.0" standalone="no"?>
<!DOCTYPE svg PUBLIC "-//W3C//DTD SVG 20010904//EN"
 "http://www.w3.org/TR/2001/REC-SVG-20010904/DTD/svg10.dtd">
<svg version="1.0" xmlns="http://www.w3.org/2000/svg"
 width="245.000000pt" height="245.000000pt" viewBox="0 0 245.000000 245.000000"
 preserveAspectRatio="xMidYMid meet">

<g transform="translate(0.000000,245.000000) scale(0.100000,-0.100000)"
fill="#000000" stroke="none">
<path d="M1363 2227 c-17 -10 -88 -68 -137 -112 -6 -5 -51 -44 -101 -85 -108
-89 -114 -97 -115 -134 0 -27 54 -104 133 -190 12 -13 38 -43 57 -66 85 -104
116 -130 152 -130 51 0 86 47 69 93 -5 13 -41 61 -80 106 -39 45 -71 86 -71
92 0 38 246 -28 364 -99 75 -45 194 -161 240 -234 103 -164 139 -364 102 -561
-13 -68 -25 -100 -72 -202 -26 -55 -120 -169 -180 -218 -340 -275 -823 -216
-1085 133 -71 95 -126 245 -139 379 -5 47 -11 94 -15 103 -9 23 -60 39 -88 29
-41 -16 -51 -38 -49 -108 7 -242 103 -449 288 -622 121 -113 240 -176 411
-217 249 -59 535 1 738 156 46 35 173 169 203 214 284 424 172 983 -251 1263
-38 24 -99 57 -135 73 -78 33 -220 70 -268 70 -19 0 -34 4 -34 9 0 5 35 39 78
75 96 81 110 103 92 146 -20 48 -62 63 -107 37z"/>
<path d="M915 1253 c-83 -63 -135 -106 -135 -112 0 -3 11 -19 24 -36 l23 -29
51 42 c27 23 53 42 56 42 3 0 6 -101 6 -226 l0 -225 53 3 52 3 0 285 0 285
-40 3 c-33 2 -49 -4 -90 -35z"/>
<path d="M1323 1270 c-74 -45 -111 -163 -99 -319 11 -143 60 -218 156 -240 52
-12 130 6 165 39 36 34 63 107 70 195 13 152 -27 282 -98 326 -45 27 -150 26
-194 -1z m129 -71 c36 -19 50 -74 50 -199 0 -132 -15 -184 -57 -200 -28 -11
-64 -1 -84 24 -21 26 -34 166 -22 258 8 70 13 86 36 105 29 26 47 28 77 12z"/>
</g>
</svg>
