<?xml version="1.0" standalone="no"?>
<!DOCTYPE svg PUBLIC "-//W3C//DTD SVG 20010904//EN"
 "http://www.w3.org/TR/2001/REC-SVG-20010904/DTD/svg10.dtd">
<svg version="1.0" xmlns="http://www.w3.org/2000/svg"
 width="224.000000pt" height="224.000000pt" viewBox="0 0 224.000000 224.000000"
 preserveAspectRatio="xMidYMid meet">

<g transform="translate(0.000000,224.000000) scale(0.100000,-0.100000)"
fill="#000000" stroke="none">
<path d="M930 2020 c-41 -41 -28 -72 60 -147 44 -37 80 -71 80 -74 0 -4 -23
-9 -50 -13 -91 -12 -222 -56 -308 -104 -163 -90 -318 -274 -375 -447 -99 -296
-33 -613 172 -837 101 -109 210 -179 366 -233 67 -23 101 -29 210 -32 149 -6
227 7 351 57 284 113 495 403 511 701 l6 95 -29 23 c-20 16 -36 20 -54 16 -43
-11 -52 -29 -61 -117 -28 -303 -216 -530 -508 -614 -83 -24 -105 -26 -204 -21
-76 3 -135 12 -182 27 -284 90 -485 363 -485 660 0 263 155 507 395 622 71 34
200 68 257 68 20 0 20 -1 2 -27 -10 -16 -41 -56 -70 -89 -29 -34 -55 -72 -59
-83 -8 -27 16 -67 45 -76 40 -13 67 5 131 81 35 42 97 114 137 161 85 99 90
124 40 171 -44 41 -224 191 -269 225 -43 32 -81 35 -109 7z"/>
<path d="M862 1148 c-71 -53 -142 -109 -142 -114 0 -13 34 -54 44 -54 7 0 31
16 53 35 23 19 43 35 45 35 2 0 2 -92 0 -205 l-4 -205 56 0 56 0 0 265 0 265
-39 0 c-24 0 -50 -8 -69 -22z"/>
<path d="M1220 1153 c-24 -12 -43 -34 -60 -68 -23 -46 -25 -61 -25 -180 0
-120 2 -135 25 -180 34 -67 91 -98 168 -92 106 8 154 81 160 243 5 124 -13
198 -62 252 -32 34 -38 36 -102 40 -52 2 -78 -1 -104 -15z m144 -96 c17 -23
21 -46 24 -133 6 -153 -27 -227 -94 -210 -36 9 -53 44 -60 122 -9 99 3 197 28
229 27 35 73 31 102 -8z"/>
</g>
</svg>
