<?xml version="1.0" standalone="no"?>
<!DOCTYPE svg PUBLIC "-//W3C//DTD SVG 20010904//EN"
 "http://www.w3.org/TR/2001/REC-SVG-20010904/DTD/svg10.dtd">
<svg version="1.0" xmlns="http://www.w3.org/2000/svg"
 width="670.000000pt" height="373.000000pt" viewBox="0 0 670.000000 373.000000"
 preserveAspectRatio="xMidYMid meet">

<g transform="translate(0.000000,373.000000) scale(0.100000,-0.100000)"
fill="#000000" stroke="none">
<path d="M3200 3719 c-227 -16 -445 -76 -665 -183 -214 -105 -365 -215 -526
-384 -321 -336 -495 -742 -515 -1207 -31 -716 338 -1369 973 -1718 301 -165
657 -241 1015 -216 681 47 1284 466 1561 1083 103 231 152 437 163 691 24 541
-180 1049 -572 1425 -385 369 -886 547 -1434 509z m396 -305 c329 -52 621
-203 862 -446 132 -132 217 -251 296 -413 145 -295 192 -569 151 -885 -18
-138 -33 -206 -75 -325 -130 -368 -424 -702 -776 -881 -109 -55 -262 -110
-394 -139 -113 -26 -431 -32 -553 -11 -335 57 -611 197 -851 434 -187 184
-307 372 -389 608 -80 232 -104 458 -73 704 46 361 196 661 462 922 152 150
287 242 474 324 168 73 333 112 515 123 143 8 229 5 351 -15z"/>
<path d="M2925 2752 c-48 -23 -69 -45 -90 -95 -13 -32 -15 -133 -15 -779 0
-700 2 -745 19 -783 22 -48 44 -69 94 -90 105 -44 223 18 247 129 8 35 10 276
8 776 l-3 725 -23 40 c-48 84 -151 117 -237 77z"/>
<path d="M3675 2757 c-48 -22 -92 -79 -104 -137 -15 -71 -15 -1409 0 -1481 29
-134 184 -195 287 -112 77 61 73 6 70 863 -3 854 2 788 -74 846 -43 33 -130
43 -179 21z"/>
</g>
</svg>
